<svg xmlns="http://www.w3.org/2000/svg" width="800" height="500" viewBox="0 0 800 500" role="img" aria-labelledby="title desc">
  <title id="title">Рабочий лист по монологу ОГЭ</title>
  <desc id="desc">Схема подготовки: четыре пункта плана, десять–двенадцать предложений и таймер.</desc>
  <rect width="800" height="500" fill="#eef1f6"/>
  <circle cx="735" cy="82" r="118" fill="#c4b5f4" opacity=".62"/>
  <circle cx="74" cy="470" r="108" fill="#93c8ee" opacity=".42"/>
  <rect x="58" y="50" width="684" height="400" rx="34" fill="#fff"/>
  <rect x="58" y="50" width="684" height="132" rx="34" fill="#1a2e4a"/>
  <path d="M58 148h684v34H58z" fill="#1a2e4a"/>
  <text x="94" y="96" fill="#c4b5f4" font-family="Arial, sans-serif" font-size="16" font-weight="700" letter-spacing="2">ЗАДАНИЕ 3 · УСТНАЯ ЧАСТЬ</text>
  <text x="94" y="139" fill="#fff" font-family="Arial, sans-serif" font-size="30" font-weight="700">Монолог без заучивания</text>
  <g transform="translate(94 215)">
    <rect width="284" height="174" rx="24" fill="#f8f9fb" stroke="#dce2ea"/>
    <text x="24" y="38" fill="#1a2e4a" font-family="Arial, sans-serif" font-size="16" font-weight="700">СТРУКТУРА ОТВЕТА</text>
    <g font-family="Arial, sans-serif" font-size="15" font-weight="700">
      <circle cx="42" cy="75" r="17" fill="#c4b5f4"/><text x="37" y="81" fill="#1a2e4a">1</text><text x="70" y="81" fill="#1a2e4a">Вступление</text>
      <circle cx="42" cy="113" r="17" fill="#93c8ee"/><text x="37" y="119" fill="#1a2e4a">4</text><text x="70" y="119" fill="#1a2e4a">Пункта плана</text>
      <circle cx="42" cy="151" r="17" fill="#a8d5b2"/><text x="37" y="157" fill="#1a2e4a">✓</text><text x="70" y="157" fill="#1a2e4a">Заключение</text>
    </g>
  </g>
  <g transform="translate(402 215)">
    <rect width="306" height="76" rx="22" fill="#fffbea"/>
    <text x="24" y="32" fill="#1a2e4a" font-family="Arial, sans-serif" font-size="27" font-weight="700">10–12</text>
    <text x="124" y="32" fill="#1a2e4a" font-family="Arial, sans-serif" font-size="14" font-weight="700">ПРЕДЛОЖЕНИЙ</text>
    <text x="24" y="55" fill="#1a2e4a" opacity=".62" font-family="Arial, sans-serif" font-size="13">в полном ответе</text>
    <rect y="98" width="306" height="76" rx="22" fill="#f2effd"/>
    <circle cx="45" cy="136" r="24" fill="#1a2e4a"/>
    <path d="M45 121v16l11 7" fill="none" stroke="#fff" stroke-width="3" stroke-linecap="round"/>
    <text x="82" y="132" fill="#1a2e4a" font-family="Arial, sans-serif" font-size="20" font-weight="700">90 → 120</text>
    <text x="82" y="153" fill="#1a2e4a" opacity=".62" font-family="Arial, sans-serif" font-size="13">подготовка → ответ</text>
  </g>
  <rect x="94" y="410" width="232" height="12" rx="6" fill="#c4b5f4"/>
  <rect x="338" y="410" width="144" height="12" rx="6" fill="#93c8ee"/>
  <rect x="494" y="410" width="214" height="12" rx="6" fill="#a8d5b2"/>
</svg>
